<?xml version="1.0" standalone="no"?>
<!DOCTYPE svg PUBLIC "-//W3C//DTD SVG 20010904//EN"
 "http://www.w3.org/TR/2001/REC-SVG-20010904/DTD/svg10.dtd">
<svg version="1.0" xmlns="http://www.w3.org/2000/svg"
 width="512.000000pt" height="512.000000pt" viewBox="0 0 512.000000 512.000000"
 preserveAspectRatio="xMidYMid meet">

<g transform="translate(0.000000,512.000000) scale(0.100000,-0.100000)"
fill="#000000" stroke="none">
<path d="M273 4495 c-106 -33 -204 -122 -245 -223 l-23 -57 0 -1655 0 -1655
23 -57 c33 -81 108 -160 190 -200 l67 -33 2275 0 2275 0 67 33 c82 40 157 119
190 200 l23 57 0 1655 0 1655 -23 57 c-33 81 -108 160 -190 200 l-67 33 -694
3 -694 3 -24 -22 c-28 -27 -30 -68 -4 -100 l19 -24 684 -5 c484 -4 690 -8 709
-17 47 -21 92 -67 115 -118 23 -48 24 -58 24 -307 l0 -258 -2410 0 -2410 0 0
258 c0 249 1 259 24 307 25 54 71 100 123 122 27 11 280 13 1432 13 1005 0
1407 3 1424 11 24 11 47 47 47 73 0 7 -9 25 -21 40 l-20 26 -1422 -1 c-1147 0
-1430 -3 -1464 -14z m4697 -2267 l0 -1283 -24 -51 c-27 -58 -80 -106 -135
-123 -55 -16 -4447 -16 -4502 0 -55 17 -108 65 -135 123 l-24 51 0 1283 0
1282 2410 0 2410 0 0 -1282z"/>
<path d="M465 3226 c-37 -17 -80 -62 -94 -99 -7 -19 -11 -209 -11 -562 0 -506
1 -534 19 -556 23 -28 83 -32 109 -6 16 16 17 62 22 550 l5 532 875 0 875 0 3
-869 c2 -689 0 -871 -10 -878 -15 -9 -1708 -11 -1732 -2 -14 5 -16 32 -16 199
0 179 -1 194 -21 219 -27 34 -71 35 -104 1 -25 -24 -25 -25 -25 -227 0 -218 8
-257 58 -301 52 -46 46 -46 972 -46 926 0 920 0 972 46 11 10 29 36 39 58 18
38 19 88 19 927 0 603 -3 896 -11 915 -14 38 -57 83 -96 99 -47 20 -1803 20
-1848 0z"/>
<path d="M2755 3217 c-22 -13 -49 -40 -62 -62 -22 -39 -23 -46 -23 -364 0
-308 1 -325 21 -360 11 -20 36 -48 56 -61 l36 -25 313 -3 c293 -3 316 -2 351
17 47 23 68 46 88 94 12 30 15 89 15 339 0 273 -2 307 -19 343 -21 46 -54 79
-94 94 -18 7 -142 11 -335 11 -300 0 -308 -1 -347 -23z m640 -427 l0 -295
-285 0 -285 0 -3 285 c-1 157 0 290 3 298 3 10 65 12 287 10 l283 -3 0 -295z"/>
<path d="M3731 3014 c-27 -35 -26 -57 3 -91 l24 -28 199 -3 c109 -2 213 0 231
3 67 12 94 78 52 123 -20 21 -27 22 -255 22 l-234 0 -20 -26z"/>
<path d="M3731 2694 c-27 -35 -26 -57 3 -91 l24 -28 307 0 307 0 24 28 c29 34
30 56 3 91 l-20 26 -314 0 -314 0 -20 -26z"/>
<path d="M1111 2632 c-70 -38 -71 -46 -71 -432 0 -324 1 -347 20 -377 27 -45
62 -65 113 -65 39 0 79 20 338 170 329 189 344 202 337 283 -3 25 -13 57 -24
72 -10 14 -149 100 -309 192 -314 182 -341 192 -404 157z m347 -297 c125 -72
219 -132 214 -137 -9 -9 -471 -278 -478 -278 -2 0 -4 129 -4 286 l0 286 23
-14 c12 -8 122 -73 245 -143z"/>
<path d="M3739 2391 c-17 -13 -23 -29 -23 -56 0 -66 23 -75 181 -75 129 0 135
1 158 25 14 13 25 36 25 50 0 14 -11 37 -25 50 -23 24 -29 25 -158 25 -117 0
-138 -3 -158 -19z"/>
<path d="M2762 2059 c-28 -14 -51 -36 -67 -64 l-25 -42 0 -323 0 -323 25 -43
c16 -28 39 -49 68 -63 42 -20 57 -21 453 -21 l411 0 21 23 c27 29 28 67 3 98
l-19 24 -404 5 -403 5 0 295 0 295 704 3 c557 2 706 0 713 -10 9 -15 11 -548
2 -572 -5 -14 -29 -16 -166 -16 -155 0 -159 -1 -183 -25 -32 -31 -32 -69 0
-100 24 -25 27 -25 195 -25 197 0 230 10 277 82 l28 42 0 326 0 326 -28 42
c-15 23 -45 51 -67 62 -38 20 -57 20 -767 20 -721 0 -728 0 -771 -21z"/>
<path d="M568 4128 c-105 -61 -84 -214 34 -250 31 -9 45 -8 82 6 109 42 118
200 13 249 -47 23 -84 21 -129 -5z"/>
<path d="M1000 4132 c-67 -34 -93 -126 -54 -193 73 -124 263 -61 251 84 -9 99
-108 154 -197 109z"/>
<path d="M1431 4133 c-124 -65 -93 -242 45 -259 73 -9 141 46 150 122 13 104
-103 186 -195 137z"/>
</g>
</svg>
