<?xml version="1.0" encoding="UTF-8" standalone="no"?>
<!-- Created with Inkscape (http://www.inkscape.org/) -->

<svg
  width="170mm"
  height="170mm"
  viewBox="0 0 170 170"
  version="1.1"
  id="svg5"
  inkscape:version="1.1.2 (b8e25be833, 2022-02-05)"
  sodipodi:docname="project.svg"
  xmlns:inkscape="http://www.inkscape.org/namespaces/inkscape"
  xmlns:sodipodi="http://sodipodi.sourceforge.net/DTD/sodipodi-0.dtd"
  xmlns="http://www.w3.org/2000/svg"
  xmlns:svg="http://www.w3.org/2000/svg">
  <sodipodi:namedview
    id="namedview7"
    pagecolor="#505050"
    bordercolor="#eeeeee"
    borderopacity="1"
    inkscape:pageshadow="0"
    inkscape:pageopacity="0"
    inkscape:pagecheckerboard="0"
    inkscape:document-units="mm"
    showgrid="false"
    inkscape:zoom="5.865376"
    inkscape:cx="499.62697"
    inkscape:cy="485.22039"
    inkscape:window-width="1920"
    inkscape:window-height="1009"
    inkscape:window-x="-3008"
    inkscape:window-y="-1"
    inkscape:window-maximized="1"
    inkscape:current-layer="wheel"
    width="209mm" />
  <defs
    id="defs2" />
  <path
    d="M 11.2059 0.887167 C 9.01868 1.41633 5.8084 3.28606 4.25617 4.97939 C 3.48006 5.82606 2.31589 7.58995 1.71617 8.89523 L 0.58728 11.2588 L 0.58728 85.2011 L 0.58728 159.108 L 1.89256 161.789 C 3.48006 164.999 5.52617 166.975 8.80701 168.527 L 11.1706 169.656 L 56.6084 169.762 L 102.011 169.833 L 102.011 167.01 L 102.011 164.188 L 57.702 164.188 C 23.9059 164.188 13.0403 164.082 11.9115 163.765 C 9.97118 163.2 7.04312 160.272 6.47867 158.332 C 5.84367 156.215 5.84367 14.1163 6.47867 11.9997 C 7.04312 10.0594 9.97118 7.13134 11.9115 6.56689 C 13.0403 6.24939 23.9059 6.14356 57.702 6.14356 L 102.011 6.14356 L 102.011 13.7636 C 102.011 22.83 102.187 23.6061 104.657 26.0755 C 107.126 28.545 107.902 28.7214 116.969 28.7214 L 124.589 28.7214 L 124.589 56.9436 L 124.589 85.1658 L 127.411 85.1658 L 130.233 85.1658 L 130.233 54.9328 L 130.233 24.6644 L 118.133 12.5994 L 106.068 0.499111 L 59.3248 0.534389 C 32.5842 0.569667 11.982 0.710778 11.2059 0.887167 Z M 114.182 16.7269 L 120.532 23.0769 L 114.958 23.0769 C 109.525 23.0769 109.384 23.0416 108.537 22.195 C 107.691 21.3483 107.655 21.2072 107.655 15.845 C 107.655 12.8463 107.691 10.3769 107.761 10.3769 C 107.797 10.3769 110.689 13.2344 114.182 16.7269 Z"
    id="page" />
  <g
    id="light-bulb">
    <path
      d="M 60.1362 29.4269 C 52.3045 31.473 46.5895 36.7647 43.9437 44.42 C 43.0618 46.8894 42.9559 47.7714 42.9559 51.4755 C 42.9559 55.1797 43.0618 56.0264 43.8731 58.2841 C 45.0726 61.6708 46.6248 64.1403 49.4118 67.28 C 51.8106 69.9964 53.1512 72.4305 53.6451 75.0411 L 53.9273 76.6992 L 51.1756 76.6992 L 48.3887 76.6992 L 48.3887 79.5214 L 48.3887 82.3436 L 51.1756 82.3436 L 53.9626 82.3436 L 54.1037 86.1889 C 54.2095 90.3517 54.527 91.1631 56.6437 92.7153 C 57.5609 93.4208 58.0901 93.4561 65.322 93.4561 C 72.554 93.4561 73.0832 93.4208 74.0004 92.7153 C 76.117 91.1631 76.4346 90.3517 76.5404 86.1889 L 76.6815 82.3436 L 79.4684 82.3436 L 82.2554 82.3436 L 82.2554 79.5214 L 82.2554 76.6992 L 79.3979 76.6992 C 76.8579 76.6992 76.5757 76.6286 76.7521 76.0642 C 76.8226 75.7467 77.0343 74.9 77.1401 74.2297 C 77.5987 72.0778 79.0098 69.7494 81.5851 66.9272 C 88.3232 59.5189 89.7343 49.9233 85.3951 41.0686 C 80.8796 31.8964 69.9082 26.8516 60.1362 29.4269 Z M 69.379 34.895 C 77.8104 37.1175 83.3843 45.4783 81.9732 53.8391 C 81.3734 57.2964 79.8918 60.2244 77.1048 63.3289 C 75.8348 64.74 74.3884 66.6097 73.8593 67.4917 C 72.6951 69.4672 71.4957 72.8892 71.1782 75.0058 L 70.9312 76.6992 L 65.322 76.6992 L 59.7482 76.6992 L 59.5012 75.1822 C 58.7251 70.6314 56.8201 66.9272 53.1865 62.9761 C 50.9993 60.5772 49.694 58.2489 48.9179 55.2855 C 45.7781 43.2558 57.314 31.7552 69.379 34.895 Z M 70.9665 85.1658 L 70.9665 87.9881 L 65.322 87.9881 L 59.6776 87.9881 L 59.6776 85.1658 L 59.6776 82.3436 L 65.322 82.3436 L 70.9665 82.3436 Z"
      id="path1459" />
    <path
      d="M 56.8554 51.8636 C 56.8554 54.1566 59.2895 57.8255 61.4415 58.7075 L 62.4998 59.1308 L 62.4998 65.0928 L 62.4998 71.0547 L 65.322 71.0547 L 68.1443 71.0547 L 68.1443 65.0928 C 68.1443 59.3425 68.1795 59.0955 68.8851 58.8839 C 70.8959 58.2489 73.7887 54.2625 73.7887 52.0753 C 73.7887 51.3344 73.6476 51.2991 71.0723 51.2991 C 68.3207 51.2991 68.3207 51.2991 67.7915 52.4633 C 67.1565 53.8039 65.7454 54.4036 64.3695 53.9097 C 63.8051 53.7333 63.1701 53.0983 62.8526 52.4633 C 62.3234 51.2991 62.3234 51.2991 59.607 51.2991 C 57.2787 51.2991 56.8554 51.405 56.8554 51.8636 Z"
      id="path1457" />
    <g
      id="light">
      <path
        d="M 62.4997 20.2547 L 62.4997 23.0769 L 65.3219 23.0769 L 68.1441 23.0769 L 68.1441 20.2547 L 68.1441 17.4324 L 65.3219 17.4324 L 62.4997 17.4324 Z"
        id="path826" />
      <path
        d="M 49.0941 21.5247 C 48.2122 22.0538 47.1538 22.6888 46.7305 22.9358 L 45.9544 23.4297 L 47.2597 25.7227 C 47.9652 26.9927 48.706 28.0158 48.8472 28.0158 C 49.0235 28.0158 50.1877 27.4513 51.4224 26.7458 L 53.6802 25.4758 L 52.7277 23.7472 C 50.858 20.4311 50.9285 20.4663 49.0941 21.5247 Z"
        id="path828" />
      <path
        d="M 79.1508 21.7363 C 78.798 22.3713 78.1277 23.4649 77.7044 24.2058 L 76.9636 25.4758 L 79.2213 26.7458 C 80.4561 27.4513 81.6202 28.0158 81.7966 28.0158 C 81.9377 28.0158 82.6433 26.9927 83.3841 25.7227 C 84.8305 23.1827 84.9011 23.4297 81.8319 21.7011 L 79.8563 20.6074 Z"
        id="path830" />
      <path
        d="M 37.1702 32.355 C 36.9938 32.6019 36.3588 33.6602 35.7238 34.7891 L 34.6302 36.7647 L 35.9355 37.5761 C 36.6763 37.9994 37.7699 38.6344 38.4049 39.0225 L 39.4985 39.6575 L 40.7685 37.3997 C 41.4741 36.165 42.0385 35.0008 42.0385 34.8244 C 42.0385 34.6833 41.0155 33.9777 39.7455 33.2369 C 38.1227 32.3197 37.4171 32.0727 37.1702 32.355 Z"
        id="path836" />
      <path
        d="M 90.8277 33.2722 C 89.593 33.9777 88.6052 34.6833 88.6052 34.8244 C 88.6052 35.3536 91.1452 39.6575 91.3569 39.5516 C 91.498 39.4811 92.5916 38.8108 93.8264 38.1052 L 96.0136 36.7647 L 94.92 34.7891 C 93.2619 31.7905 93.3325 31.8258 90.8277 33.2722 Z"
        id="path838" />
      <path
        d="M 31.4552 51.2991 L 31.4552 54.1214 L 34.2774 54.1214 L 37.0996 54.1214 L 37.0996 51.2991 L 37.0996 48.4769 L 34.2774 48.4769 L 31.4552 48.4769 Z"
        id="path840" />
      <path
        d="M 93.5441 51.2991 L 93.5441 54.1214 L 96.3664 54.1214 L 99.1886 54.1214 L 99.1886 51.2991 L 99.1886 48.4769 L 96.3664 48.4769 L 93.5441 48.4769 Z"
        id="path842" />
      <path
        d="M 36.9938 64.3872 L 34.5949 65.7983 L 35.7238 67.8091 C 37.4524 70.8783 37.2055 70.8078 39.7455 69.3614 C 41.0155 68.6205 42.0385 67.915 42.0385 67.7739 C 42.0385 67.4916 39.6044 62.9408 39.4633 62.9408 C 39.428 62.9408 38.2991 63.5758 36.9938 64.3872 Z"
        id="path844" />
      <path
        d="M 89.8752 65.1986 C 89.1697 66.4333 88.6052 67.5975 88.6052 67.7739 C 88.6052 67.915 89.6283 68.6205 90.8983 69.3614 C 93.4383 70.8078 93.1913 70.8783 94.92 67.8091 L 96.0136 65.8336 L 93.8264 64.493 C 92.5916 63.7875 91.498 63.1172 91.3569 63.0466 C 91.2511 62.9761 90.5808 63.9639 89.8752 65.1986 Z"
        id="path846" />
    </g>
  </g>
  <g
    id="wheel">
    <path
      d="M 122.719 91.6217 C 122.049 92.2567 121.802 93.2092 121.308 96.5958 C 120.99 98.9242 120.673 100.829 120.637 100.864 C 119.685 101.288 116.51 102.452 116.192 102.452 C 115.946 102.452 114.499 101.535 113.017 100.406 C 109.525 97.76 108.89 97.4072 107.691 97.6894 C 106.315 97.9717 97.4247 106.968 97.4247 108.061 C 97.4247 109.119 97.8833 109.896 100.317 113.106 C 101.446 114.588 102.364 116.034 102.364 116.281 C 102.364 116.598 101.199 119.773 100.776 120.726 C 100.741 120.761 98.8358 121.079 96.5075 121.396 C 90.475 122.243 90.7219 121.855 90.7219 130.321 C 90.7219 138.788 90.475 138.4 96.5075 139.247 C 98.8358 139.564 100.741 139.882 100.776 139.917 C 101.199 140.869 102.364 144.044 102.364 144.362 C 102.364 144.609 101.446 146.055 100.317 147.537 C 97.6716 151.029 97.3189 151.7 97.6011 152.829 C 97.9186 154.134 106.456 162.671 107.691 162.953 C 108.89 163.236 109.56 162.883 113.017 160.237 C 114.499 159.108 115.946 158.191 116.192 158.191 C 116.51 158.191 119.685 159.355 120.637 159.778 C 120.673 159.814 120.99 161.719 121.308 164.047 C 122.154 170.079 121.766 169.833 130.233 169.833 C 138.523 169.833 138.347 169.938 139.017 165.07 C 139.793 159.32 139.511 159.849 142.192 158.896 L 144.591 158.085 L 147.378 160.202 C 150.906 162.883 151.576 163.236 152.776 162.953 C 154.01 162.671 162.548 154.134 162.865 152.829 C 163.147 151.7 162.794 151.029 160.149 147.537 C 159.02 146.055 158.103 144.609 158.103 144.362 C 158.103 144.044 159.267 140.869 159.69 139.917 C 159.725 139.882 161.63 139.564 163.959 139.247 C 169.991 138.4 169.744 138.788 169.744 130.321 C 169.744 121.855 169.991 122.243 163.959 121.396 C 161.63 121.079 159.725 120.761 159.69 120.726 C 159.267 119.773 158.103 116.598 158.103 116.281 C 158.103 116.034 159.02 114.588 160.149 113.106 C 162.794 109.613 163.147 108.943 162.865 107.814 C 162.548 106.509 154.01 97.9717 152.776 97.6894 C 151.576 97.4072 150.906 97.76 147.378 100.441 L 144.591 102.558 L 142.192 101.746 C 139.511 100.794 139.793 101.323 139.017 95.5728 C 138.347 90.7044 138.523 90.8103 130.233 90.8103 C 123.707 90.8103 123.46 90.8455 122.719 91.6217 Z M 133.549 97.4072 C 133.655 97.9717 133.902 99.665 134.114 101.217 C 134.361 102.769 134.749 104.322 134.996 104.674 C 135.242 105.027 136.759 105.768 138.347 106.333 C 139.899 106.897 141.769 107.673 142.439 108.061 C 144.45 109.261 145.297 109.049 148.754 106.474 L 151.894 104.181 L 154.151 106.438 L 156.409 108.731 L 154.081 111.801 C 151.506 115.258 151.259 116.21 152.493 118.186 C 152.881 118.856 153.693 120.691 154.222 122.243 C 154.786 123.83 155.527 125.312 155.88 125.559 C 156.233 125.806 157.785 126.194 159.337 126.441 C 160.889 126.653 162.583 126.899 163.147 127.005 L 164.1 127.217 L 164.1 130.321 L 164.1 133.426 L 163.147 133.638 C 162.583 133.743 160.889 133.99 159.337 134.202 C 157.785 134.449 156.233 134.837 155.88 135.084 C 155.527 135.331 154.786 136.813 154.222 138.4 C 153.693 139.952 152.881 141.787 152.493 142.457 C 151.259 144.433 151.506 145.385 154.081 148.842 L 156.409 151.911 L 154.151 154.204 L 151.894 156.462 L 148.754 154.169 C 145.297 151.594 144.45 151.382 142.439 152.582 C 141.769 152.97 139.899 153.746 138.347 154.31 C 136.759 154.875 135.242 155.616 134.996 155.968 C 134.749 156.321 134.361 157.873 134.114 159.426 C 133.902 160.978 133.655 162.671 133.549 163.2 L 133.337 164.188 L 130.233 164.188 L 127.129 164.188 L 126.917 163.236 C 126.811 162.671 126.564 160.978 126.352 159.426 C 126.106 157.873 125.717 156.321 125.471 155.968 C 125.224 155.616 123.707 154.875 122.119 154.31 C 120.567 153.746 118.697 152.97 118.027 152.582 C 116.016 151.382 115.134 151.594 111.712 154.169 L 108.643 156.498 L 106.35 154.204 L 104.057 151.911 L 106.385 148.842 C 108.961 145.385 109.207 144.433 107.973 142.457 C 107.585 141.787 106.773 139.952 106.244 138.4 C 105.68 136.813 104.939 135.331 104.586 135.084 C 104.233 134.837 102.681 134.449 101.129 134.202 C 99.5766 133.99 97.8833 133.743 97.3541 133.638 L 96.3664 133.426 L 96.3664 130.321 L 96.3664 127.217 L 97.3541 127.005 C 97.8833 126.899 99.5766 126.653 101.129 126.441 C 102.681 126.194 104.233 125.806 104.586 125.559 C 104.939 125.312 105.68 123.795 106.244 122.208 C 106.809 120.655 107.585 118.786 107.973 118.115 C 109.172 116.104 108.961 115.223 106.385 111.801 L 104.057 108.731 L 106.35 106.438 L 108.643 104.145 L 111.712 106.474 C 115.134 109.049 116.016 109.261 118.027 108.061 C 118.697 107.673 120.567 106.897 122.119 106.333 C 123.707 105.768 125.224 105.027 125.471 104.674 C 125.717 104.322 126.106 102.769 126.352 101.217 C 126.564 99.665 126.811 97.9717 126.917 97.4072 L 127.129 96.4547 L 130.233 96.4547 L 133.337 96.4547 Z"
      id="outline" />
    <circle
      style="fill:none;fill-opacity:1;stroke:#000000;stroke-width:5.766;stroke-linejoin:round;stroke-miterlimit:4;stroke-dasharray:none;stroke-opacity:1"
      id="core"
      cx="130.21027"
      cy="130.26431"
      r="14.367162" />
    <path
      d="M 127.411 104.921 L 127.411 107.744 L 130.233 107.744 L 133.055 107.744 L 133.055 104.921 L 133.055 102.099 L 130.233 102.099 L 127.411 102.099 Z"
      id="top" />
    <path
      d="M 110.125 110.389 L 108.184 112.33 L 110.231 114.376 L 112.241 116.387 L 114.252 114.376 L 116.298 112.33 L 114.358 110.389 C 113.3 109.331 112.347 108.449 112.241 108.449 C 112.136 108.449 111.183 109.331 110.125 110.389 Z"
      id="top-left" />
    <path
      d="M 146.108 110.389 L 144.168 112.33 L 146.214 114.376 L 148.225 116.387 L 150.165 114.446 L 152.105 112.506 L 150.059 110.46 L 148.013 108.449 Z"
      id="top-right" />
    <path
      d="M 102.011 130.321 L 102.011 133.144 L 104.833 133.144 L 107.655 133.144 L 107.655 130.321 L 107.655 127.499 L 104.833 127.499 L 102.011 127.499 Z"
      id="left" />
    <path
      d="M 152.811 130.321 L 152.811 133.144 L 155.633 133.144 L 158.455 133.144 L 158.455 130.321 L 158.455 127.499 L 155.633 127.499 L 152.811 127.499 Z"
      id="right" />
    <path
      d="M 110.125 146.373 L 108.184 148.313 L 110.231 150.359 L 112.241 152.37 L 114.252 150.359 L 116.298 148.313 L 114.358 146.373 C 113.3 145.314 112.347 144.433 112.241 144.433 C 112.136 144.433 111.183 145.314 110.125 146.373 Z"
      id="bottom-left" />
    <path
      d="M 146.108 146.373 L 144.203 148.313 L 146.108 150.253 L 148.013 152.194 L 150.059 150.183 L 152.105 148.172 L 150.271 146.302 C 149.248 145.279 148.331 144.433 148.225 144.433 C 148.119 144.433 147.166 145.314 146.108 146.373 Z"
      id="bottom-right" />
    <path
      d="M 127.411 155.721 L 127.411 158.544 L 130.233 158.544 L 133.055 158.544 L 133.055 155.721 L 133.055 152.899 L 130.233 152.899 L 127.411 152.899 Z"
      id="bottom" />
  </g>
  <g
    id="lines">
    <path
      d="M 17.3442 107.744 L 17.3442 110.566 L 42.7443 110.566 L 68.1443 110.566 L 68.1443 107.744 L 68.1443 104.921 L 42.7443 104.921 L 17.3442 104.921 Z"
      id="path868" />
    <path
      d="M 73.7887 107.744 L 73.7887 110.566 L 79.4332 110.566 L 85.0776 110.566 L 85.0776 107.744 L 85.0776 104.921 L 79.4332 104.921 L 73.7887 104.921 Z"
      id="path870" />
    <path
      d="M 17.3442 119.033 L 17.3442 121.855 L 51.2109 121.855 L 85.0776 121.855 L 85.0776 119.033 L 85.0776 116.21 L 51.2109 116.21 L 17.3442 116.21 Z"
      id="path872" />
    <path
      d="M 17.3442 130.321 L 17.3442 133.144 L 20.1665 133.144 L 22.9887 133.144 L 22.9887 130.321 L 22.9887 127.499 L 20.1665 127.499 L 17.3442 127.499 Z"
      id="path874" />
    <path
      d="M 28.6331 130.321 L 28.6331 133.144 L 56.8554 133.144 L 85.0776 133.144 L 85.0776 130.321 L 85.0776 127.499 L 56.8554 127.499 L 28.6331 127.499 Z"
      id="path876" />
    <path
      d="M 17.3442 141.61 L 17.3442 144.433 L 51.2109 144.433 L 85.0776 144.433 L 85.0776 141.61 L 85.0776 138.788 L 51.2109 138.788 L 17.3442 138.788 Z"
      id="path878" />
  </g>
</svg>