<?xml version="1.0" standalone="no"?>
<!DOCTYPE svg PUBLIC "-//W3C//DTD SVG 20010904//EN"
 "http://www.w3.org/TR/2001/REC-SVG-20010904/DTD/svg10.dtd">
<svg version="1.0" xmlns="http://www.w3.org/2000/svg"
 width="512.000000pt" height="512.000000pt" viewBox="0 0 512.000000 512.000000"
 preserveAspectRatio="xMidYMid meet">

<g transform="translate(0.000000,512.000000) scale(0.100000,-0.100000)"
fill="#000000" stroke="none">
<path d="M466 4949 c-62 -15 -153 -68 -197 -116 -22 -24 -55 -74 -72 -111
l-32 -67 0 -2096 0 -2095 37 -76 c45 -91 103 -147 196 -191 l67 -32 1288 -3
1287 -2 0 80 0 80 -1256 0 c-958 0 -1266 3 -1298 12 -55 16 -138 99 -154 154
-18 60 -18 4088 0 4148 16 55 99 138 154 154 32 9 340 12 1298 12 l1256 0 0
-216 c0 -257 5 -279 75 -349 70 -70 92 -75 349 -75 l216 0 0 -800 0 -800 80 0
80 0 0 857 0 858 -343 342 -342 343 -1325 -1 c-758 -1 -1342 -5 -1364 -10z
m2919 -449 l180 -180 -158 0 c-154 0 -158 1 -182 25 -24 24 -25 28 -25 180 0
85 1 155 3 155 1 0 83 -81 182 -180z"/>
<path d="M1920 4400 l0 -80 80 0 80 0 0 80 0 80 -80 0 -80 0 0 -80z"/>
<path d="M1540 4364 c-25 -15 -55 -33 -67 -40 l-22 -14 37 -65 c20 -36 41 -65
45 -65 5 0 38 16 73 36 l64 36 -27 49 c-53 94 -51 93 -103 63z"/>
<path d="M2392 4358 c-10 -18 -29 -49 -41 -70 l-21 -36 64 -36 c35 -20 68 -36
73 -36 4 0 24 29 45 65 41 72 43 65 -44 114 l-56 31 -20 -32z"/>
<path d="M1853 4140 c-222 -58 -384 -208 -459 -425 -25 -70 -28 -95 -28 -200
0 -105 3 -129 26 -193 34 -96 78 -166 157 -255 68 -77 106 -146 120 -220 l8
-47 -78 0 -79 0 0 -80 0 -80 79 0 79 0 4 -109 c3 -118 12 -141 72 -185 26 -20
41 -21 246 -21 205 0 220 1 246 21 60 44 69 67 72 185 l4 109 79 0 79 0 0 80
0 80 -81 0 c-72 0 -80 2 -75 18 2 9 8 33 11 52 13 61 53 127 126 207 191 210
231 482 108 733 -128 260 -439 403 -716 330z m262 -155 c239 -63 397 -300 357
-537 -17 -98 -59 -181 -138 -269 -36 -40 -77 -93 -92 -118 -33 -56 -67 -153
-76 -213 l-7 -48 -159 0 -158 0 -7 43 c-22 129 -76 234 -179 346 -62 68 -99
134 -121 218 -89 341 238 667 580 578z m45 -1425 l0 -80 -160 0 -160 0 0 80 0
80 160 0 160 0 0 -80z"/>
<path d="M1760 3504 c0 -65 69 -169 130 -194 l30 -12 0 -169 0 -169 80 0 80 0
0 169 c0 163 1 170 21 176 57 18 139 131 139 193 0 21 -4 22 -77 22 -78 0 -78
0 -93 -33 -18 -38 -58 -55 -97 -41 -16 5 -34 23 -43 41 -15 33 -15 33 -92 33
-66 0 -78 -3 -78 -16z"/>
<path d="M1202 4057 c-5 -7 -23 -37 -41 -69 l-31 -56 37 -23 c21 -12 52 -30
70 -41 l31 -18 36 64 c20 35 36 68 36 73 0 4 -29 24 -65 45 -46 26 -66 33 -73
25z"/>
<path d="M2723 4031 c-35 -20 -63 -40 -63 -44 0 -15 72 -137 78 -134 4 2 35
21 70 41 l62 38 -31 56 c-47 85 -45 84 -116 43z"/>
<path d="M1040 3520 l0 -80 80 0 80 0 0 80 0 80 -80 0 -80 0 0 -80z"/>
<path d="M2800 3520 l0 -80 80 0 80 0 0 80 0 80 -80 0 -80 0 0 -80z"/>
<path d="M1197 3149 l-68 -40 32 -57 c49 -87 42 -85 114 -44 36 21 65 41 65
45 0 8 -69 137 -73 137 -1 0 -33 -18 -70 -41z"/>
<path d="M2696 3126 c-20 -35 -36 -68 -36 -73 0 -4 29 -24 65 -45 72 -41 65
-43 114 44 l31 56 -62 38 c-35 20 -66 39 -70 41 -3 2 -22 -26 -42 -61z"/>
<path d="M3627 2377 c-19 -18 -26 -45 -40 -141 -9 -66 -18 -120 -19 -121 -27
-12 -117 -45 -126 -45 -7 0 -48 26 -90 58 -99 75 -117 85 -151 77 -39 -8 -291
-263 -291 -294 0 -30 13 -52 82 -143 32 -42 58 -83 58 -90 0 -9 -33 -99 -45
-126 -1 -1 -55 -10 -121 -19 -171 -24 -164 -13 -164 -253 0 -240 -7 -229 164
-253 66 -9 120 -18 121 -19 12 -27 45 -117 45 -126 0 -7 -26 -48 -58 -90 -75
-99 -85 -118 -77 -150 9 -37 251 -279 286 -287 34 -8 53 2 151 77 42 32 83 58
90 58 9 0 99 -33 126 -45 1 -1 10 -55 19 -121 24 -171 13 -164 253 -164 235 0
230 -3 249 135 22 163 14 148 90 175 l68 23 79 -60 c100 -76 119 -86 153 -78
35 8 277 250 286 287 8 32 -2 51 -77 150 -32 42 -58 83 -58 90 0 9 33 99 45
126 1 1 55 10 121 19 171 24 164 13 164 253 0 240 7 229 -164 253 -66 9 -120
18 -121 19 -12 27 -45 117 -45 126 0 7 26 48 58 90 75 99 85 118 77 150 -9 37
-251 279 -286 287 -34 8 -53 -2 -153 -78 l-79 -60 -68 23 c-76 27 -68 12 -90
175 -19 138 -14 135 -249 135 -185 0 -192 -1 -213 -23z m307 -164 c3 -16 10
-64 16 -108 7 -44 18 -88 25 -98 7 -10 50 -31 95 -47 44 -16 97 -38 116 -49
57 -34 81 -28 179 45 l89 65 64 -64 64 -65 -66 -87 c-73 -98 -80 -125 -45
-181 11 -19 34 -71 49 -115 16 -45 37 -87 47 -94 10 -7 54 -18 98 -25 44 -6
92 -13 108 -16 l27 -6 0 -88 0 -88 -27 -6 c-16 -3 -64 -10 -108 -16 -44 -7
-88 -18 -98 -25 -10 -7 -31 -49 -47 -94 -15 -44 -38 -96 -49 -115 -35 -56 -28
-83 45 -181 l66 -87 -64 -65 -64 -64 -89 65 c-98 73 -122 79 -179 45 -19 -11
-72 -33 -116 -49 -45 -16 -88 -37 -95 -47 -7 -10 -18 -54 -25 -98 -6 -44 -13
-92 -16 -107 l-6 -28 -88 0 -88 0 -6 27 c-3 16 -10 64 -16 108 -7 44 -18 88
-25 98 -7 10 -50 31 -95 47 -44 16 -97 38 -116 49 -57 34 -82 28 -179 -45
l-87 -66 -65 65 -65 65 66 87 c73 98 80 125 45 181 -11 19 -34 71 -49 115 -16
45 -37 87 -47 94 -10 7 -54 18 -98 25 -44 6 -92 13 -107 16 l-28 6 0 88 0 88
28 6 c15 3 63 10 107 16 44 7 88 18 98 25 10 7 31 50 47 95 16 44 38 97 49
116 34 57 28 82 -45 179 l-66 87 65 65 65 65 87 -66 c97 -73 122 -79 179 -45
19 11 72 33 116 49 45 16 88 37 95 47 7 10 18 54 25 98 6 44 13 92 16 108 l6
27 88 0 88 0 6 -27z"/>
<path d="M3760 2000 l0 -80 80 0 80 0 0 80 0 80 -80 0 -80 0 0 -80z"/>
<path d="M3270 1845 l-55 -55 58 -58 57 -57 57 57 58 58 -55 55 c-30 30 -57
55 -60 55 -3 0 -30 -25 -60 -55z"/>
<path d="M4290 1845 l-55 -55 58 -58 57 -57 55 55 55 55 -58 58 -58 57 -54
-55z"/>
<path d="M3721 1744 c-253 -68 -410 -331 -346 -579 67 -256 329 -415 580 -350
237 62 393 291 358 529 -40 283 -322 473 -592 400z m254 -175 c63 -30 123 -90
155 -154 20 -41 25 -65 25 -135 -1 -77 -4 -91 -34 -148 -38 -70 -70 -101 -145
-140 -43 -22 -64 -26 -136 -26 -70 -1 -94 4 -135 24 -260 128 -238 495 35 594
63 23 170 16 235 -15z"/>
<path d="M3040 1280 l0 -80 80 0 80 0 0 80 0 80 -80 0 -80 0 0 -80z"/>
<path d="M4480 1280 l0 -80 80 0 80 0 0 80 0 80 -80 0 -80 0 0 -80z"/>
<path d="M3270 825 l-55 -55 58 -58 57 -57 57 57 58 58 -55 55 c-30 30 -57 55
-60 55 -3 0 -30 -25 -60 -55z"/>
<path d="M4290 825 l-54 -55 54 -55 54 -55 58 57 58 57 -52 53 c-29 29 -55 53
-58 53 -3 0 -30 -25 -60 -55z"/>
<path d="M3760 560 l0 -80 80 0 80 0 0 80 0 80 -80 0 -80 0 0 -80z"/>
<path d="M640 1920 l0 -80 720 0 720 0 0 80 0 80 -720 0 -720 0 0 -80z"/>
<path d="M2240 1920 l0 -80 160 0 160 0 0 80 0 80 -160 0 -160 0 0 -80z"/>
<path d="M640 1600 l0 -80 960 0 960 0 0 80 0 80 -960 0 -960 0 0 -80z"/>
<path d="M640 1280 l0 -80 80 0 80 0 0 80 0 80 -80 0 -80 0 0 -80z"/>
<path d="M960 1280 l0 -80 800 0 800 0 0 80 0 80 -800 0 -800 0 0 -80z"/>
<path d="M640 960 l0 -80 960 0 960 0 0 80 0 80 -960 0 -960 0 0 -80z"/>
</g>
</svg>
