<?xml version="1.0" standalone="no"?>
<!DOCTYPE svg PUBLIC "-//W3C//DTD SVG 20010904//EN"
 "http://www.w3.org/TR/2001/REC-SVG-20010904/DTD/svg10.dtd">
<svg version="1.0" xmlns="http://www.w3.org/2000/svg"
 width="200.000000pt" height="200.000000pt" viewBox="0 0 200.000000 200.000000"
 preserveAspectRatio="xMidYMid meet">

<g transform="translate(0.000000,200.000000) scale(0.100000,-0.100000)"
fill="#000000" stroke="none">
<path d="M1386 1858 c-9 -12 -16 -39 -16 -59 0 -34 -3 -37 -46 -54 l-46 -17
-32 31 c-41 40 -64 39 -104 -2 -40 -41 -40 -57 -2 -100 l30 -35 -26 -56 c-25
-54 -27 -56 -65 -56 -26 0 -46 -7 -59 -20 -19 -19 -33 -20 -204 -20 -141 0
-186 -3 -195 -13 -6 -8 -8 -17 -4 -20 3 -4 91 -7 195 -7 176 0 188 -1 188 -18
0 -31 33 -52 79 -52 35 0 43 -4 51 -25 5 -14 16 -25 25 -25 22 0 19 46 -5 70
-14 14 -33 20 -66 20 -45 0 -45 0 -42 33 3 31 5 32 53 37 l50 5 32 65 c17 36
32 72 32 80 1 9 -13 33 -31 54 l-32 39 24 19 c23 19 23 19 55 -12 36 -35 52
-36 115 -13 64 23 69 29 72 81 3 45 4 47 36 50 31 3 32 2 32 -35 0 -22 6 -47
13 -57 13 -18 120 -66 147 -66 8 0 29 14 47 32 32 31 33 31 53 13 27 -24 25
-33 -12 -72 l-32 -33 23 -67 c13 -38 31 -74 39 -80 9 -7 35 -13 60 -13 43 0
43 0 40 -32 -3 -32 -5 -33 -55 -38 -28 -3 -54 -8 -56 -10 -3 -3 -17 -33 -31
-68 -28 -67 -27 -80 13 -116 26 -24 26 -38 1 -61 -19 -17 -21 -17 -61 19 -28
26 -46 35 -57 30 -10 -3 -39 -15 -67 -26 -60 -24 -65 -30 -65 -85 0 -42 -1
-43 -35 -43 -34 0 -35 1 -35 43 0 54 -6 62 -64 86 -64 28 -72 27 -109 -14 -31
-33 -33 -34 -55 -20 -28 21 -28 36 3 65 38 36 30 100 -13 100 -10 0 -12 -8 -8
-27 5 -21 0 -35 -19 -55 l-26 -28 -489 0 -490 0 0 125 0 125 186 0 c171 0 185
1 182 18 -3 15 -21 17 -187 20 -161 2 -186 0 -202 -14 -18 -16 -19 -45 -19
-605 l0 -588 22 -15 c12 -9 35 -16 50 -16 26 0 28 -3 28 -43 0 -24 5 -48 12
-55 9 -9 201 -12 805 -12 773 0 793 0 803 19 14 27 14 1135 0 1162 -6 10 -20
19 -31 19 -40 0 -12 25 33 30 62 8 78 23 78 76 0 55 -19 74 -74 74 -43 0 -43
0 -63 54 l-20 55 28 27 c38 36 38 73 0 113 -34 36 -60 39 -87 10 -35 -38 -49
-40 -108 -14 -56 25 -56 25 -56 68 0 55 -13 67 -71 67 -38 0 -51 -5 -63 -22z
m404 -620 l0 -43 -26 27 c-30 29 -27 58 6 58 17 0 20 -6 20 -42z m-639 -133
c22 -19 46 -35 55 -35 9 0 31 16 49 35 l33 34 41 -16 c40 -16 41 -17 41 -63 0
-58 12 -70 71 -70 60 0 79 18 79 74 l0 42 56 19 56 19 19 -25 c16 -21 19 -47
21 -219 3 -165 5 -195 18 -195 13 0 15 29 18 185 l3 185 40 27 39 28 0 -485 0
-485 -775 0 -775 0 0 35 0 35 715 0 c705 0 715 0 735 20 19 19 20 31 18 138
-2 96 -6 117 -18 117 -12 0 -16 -22 -20 -115 l-5 -115 -760 0 -760 0 -3 433
-2 432 486 0 487 0 38 -35z"/>
<path d="M354 939 c-4 -6 27 -44 70 -88 l76 -76 -75 -75 c-41 -41 -75 -78 -75
-83 0 -4 7 -10 16 -14 17 -6 160 127 170 161 5 14 -14 39 -77 102 -46 46 -87
84 -91 84 -4 0 -10 -5 -14 -11z"/>
<path d="M1672 603 c2 -35 7 -48 18 -48 24 0 21 89 -3 93 -16 3 -18 -3 -15
-45z"/>
<path d="M620 620 c0 -20 5 -20 152 -18 136 3 153 5 156 21 3 16 -9 17 -152
17 -150 0 -156 -1 -156 -20z"/>
<path d="M1413 1559 c-79 -23 -111 -135 -59 -204 36 -47 90 -61 145 -39 107
43 107 195 1 238 -45 18 -43 18 -87 5z m72 -43 c37 -16 55 -42 55 -81 0 -90
-125 -123 -165 -44 -8 15 -15 35 -15 43 0 31 26 69 55 82 37 16 30 16 70 0z"/>
<path d="M255 1324 c-18 -18 -16 -33 7 -47 35 -22 66 21 36 51 -16 16 -23 15
-43 -4z"/>
<path d="M380 1325 c-19 -23 -8 -50 20 -50 19 0 26 6 28 24 5 35 -26 53 -48
26z"/>
<path d="M500 1326 c-27 -33 18 -72 48 -42 13 13 14 20 6 34 -15 23 -38 26
-54 8z"/>
</g>
</svg>
